<?xml version="1.0" encoding="utf-8"?>
<!-- Generator: Adobe Illustrator 21.0.0, SVG Export Plug-In . SVG Version: 6.00 Build 0)  -->
<svg version="1.1" id="Capa_1" xmlns="http://www.w3.org/2000/svg" xmlns:xlink="http://www.w3.org/1999/xlink" x="0px" y="0px"
	 viewBox="0 0 600 199.8" style="enable-background:new 0 0 600 199.8;" xml:space="preserve">
<style type="text/css">
	.st0{fill:#0065A1;}
	.st1{fill:#333E48;}
</style>
<title>logo1-07</title>
<g>
	<path class="st0" d="M94.5-0.4v160.2c0,0.5,0.3,1,0.7,1.3l39.3,22.8c1,0.6,2.2-0.1,2.2-1.3V78.9c0-0.6,0.6-0.9,1.1-0.6l48.9,30.1
		c1,0.6,2.2-0.1,2.2-1.3V60.3c0-0.5-0.2-1-0.7-1.2L96.8-1.7C95.8-2.3,94.5-1.6,94.5-0.4z"/>
	<path class="st0" d="M73.3,172.2V89.9c0-0.5-0.3-1-0.8-1.3L52.9,78c-0.5-0.2-1-0.2-1.5,0L22.1,96.1c-0.5,0.3-1.1,0-1.1-0.6V71.7
		c0-0.5,0.2-0.9,0.6-1.2L72.7,36c0.4-0.3,0.6-0.7,0.6-1.2v-21c0-1.2-1.3-1.9-2.3-1.2L0.7,59.1C0.2,59.4,0,59.9,0,60.3v48.6
		c0,0.5,0.3,1,0.8,1.3l19.5,10.6c0.5,0.3,1,0.2,1.5,0l29.3-18c0.5-0.3,1.1,0.1,1.1,0.6v82c0,0.5,0.3,1,0.8,1.3l20.2,11.1
		c0.5,0.3,1,0.2,1.5,0l26.7-16.2c1-0.6,0.9-2,0-2.5l-18.1-10.5c-0.5-0.3-1-0.3-1.5,0l-7.2,4.3C74,173.1,73.3,172.7,73.3,172.2z"/>
</g>
<g>
	<path class="st1" d="M258.5,64.3v13.5h-19.1v56.7h-17.1V77.8h-18.9V64.3H258.5z"/>
	<path class="st1" d="M309.2,121.7h-26.3l-4.4,12.8h-17.9l25.7-69.8h19.6l25.7,69.8h-18.1L309.2,121.7z M304.9,108.8L296.1,83
		l-8.8,25.8H304.9z"/>
	<path class="st1" d="M385.9,125c-1.9,3.1-4.7,5.6-8.3,7.5c-3.7,1.9-8.1,2.8-13.4,2.8c-7.9,0-14.4-1.9-19.5-5.8
		c-5.1-3.8-7.9-9.2-8.3-16.1h18.1c0.3,2.6,1.2,4.7,2.8,6.3c1.6,1.5,3.7,2.3,6.2,2.3c2.2,0,3.9-0.6,5.2-1.8c1.3-1.2,1.9-2.8,1.9-4.8
		c0-1.8-0.6-3.3-1.7-4.5c-1.2-1.2-2.6-2.2-4.3-2.9c-1.7-0.8-4.1-1.7-7.2-2.7c-4.4-1.5-8.1-3-10.9-4.4c-2.8-1.4-5.2-3.5-7.3-6.4
		c-2-2.8-3-6.5-3-11c0-4.2,1.1-7.8,3.2-10.8c2.1-3,5.1-5.4,8.8-7c3.7-1.6,8-2.4,12.9-2.4c7.8,0,14,1.9,18.6,5.6
		c4.6,3.7,7.2,8.8,7.8,15.3H369c-0.3-2.3-1.2-4.2-2.5-5.5c-1.4-1.4-3.2-2-5.5-2c-2,0-3.6,0.5-4.8,1.6c-1.2,1.1-1.8,2.6-1.8,4.7
		c0,1.7,0.5,3.1,1.6,4.2c1.1,1.2,2.5,2.1,4.1,2.8c1.7,0.7,4,1.7,7.2,2.8c4.5,1.5,8.2,3,11,4.5c2.8,1.5,5.3,3.7,7.4,6.5
		c2.1,2.8,3.1,6.6,3.1,11.1C388.7,118.5,387.8,121.9,385.9,125z"/>
	<path class="st1" d="M415.2,64.3v70.3h-17V64.3H415.2z"/>
	<path class="st1" d="M489.3,134.5h-17l-28.4-43.1v43.1h-17V64.3h17l28.4,43.5V64.3h17V134.5z"/>
	<path class="st1" d="M555.7,70c5.7,4.3,9.2,10.1,10.6,17.5h-18c-1.2-2.5-3-4.5-5.5-6c-2.5-1.5-5.4-2.2-8.8-2.2
		c-5.4,0-9.7,1.8-12.9,5.4c-3.2,3.6-4.9,8.5-4.9,14.7c0,6.7,1.7,11.8,5.1,15.4c3.4,3.6,8.3,5.4,14.6,5.4c4,0,7.6-1.1,10.6-3.3
		c3-2.2,5.2-5.4,6.5-9.5h-21.5V95.1h35.7v16.8c-1.3,4.1-3.4,7.9-6.4,11.4c-2.9,3.5-6.6,6.4-11.2,8.5c-4.5,2.2-9.7,3.3-15.6,3.3
		c-7.1,0-13.3-1.5-18.6-4.5c-5.3-3-9.4-7.2-12.3-12.7c-2.9-5.4-4.3-11.6-4.3-18.6c0-7,1.4-13.2,4.3-18.6c2.9-5.4,7-9.7,12.2-12.7
		c5.3-3,11.4-4.5,18.4-4.5C542.7,63.6,550,65.7,555.7,70z"/>
	<path class="st1" d="M600,60.8l-2.1,48.6h-14.4l-2.1-48.6H600z M599.6,117.5v17h-17.7v-17H599.6z"/>
</g>
</svg>
